<svg xmlns="http://www.w3.org/2000/svg" viewBox="0 0 1200 820" font-family="'Segoe UI','Inter',Arial,sans-serif">
  <defs>
    <linearGradient id="bgGrad" x1="0" y1="0" x2="1200" y2="820" gradientUnits="userSpaceOnUse">
      <stop offset="0%" stop-color="#0b0d17"/>
      <stop offset="100%" stop-color="#111827"/>
    </linearGradient>
    <linearGradient id="vpcGrad" x1="0" y1="0" x2="0" y2="1">
      <stop offset="0%" stop-color="#1e3a5f" stop-opacity="0.25"/>
      <stop offset="100%" stop-color="#1e3a5f" stop-opacity="0.08"/>
    </linearGradient>
    <filter id="glow">
      <feGaussianBlur stdDeviation="3" result="blur"/>
      <feMerge><feMergeNode in="blur"/><feMergeNode in="SourceGraphic"/></feMerge>
    </filter>
    <filter id="shadow">
      <feDropShadow dx="0" dy="2" stdDeviation="4" flood-color="#000" flood-opacity="0.5"/>
    </filter>
    <marker id="arrowOrange" markerWidth="8" markerHeight="6" refX="8" refY="3" orient="auto">
      <path d="M0,0 L8,3 L0,6" fill="#f59e0b"/>
    </marker>
    <marker id="arrowCyan" markerWidth="8" markerHeight="6" refX="8" refY="3" orient="auto">
      <path d="M0,0 L8,3 L0,6" fill="#22d3ee"/>
    </marker>
    <marker id="arrowGreen" markerWidth="8" markerHeight="6" refX="8" refY="3" orient="auto">
      <path d="M0,0 L8,3 L0,6" fill="#4ade80"/>
    </marker>
  </defs>

  <!-- Background -->
  <rect width="1200" height="820" fill="url(#bgGrad)" rx="12"/>

  <!-- Title -->
  <text x="600" y="42" text-anchor="middle" fill="#f59e0b" font-size="20" font-weight="700" letter-spacing="0.5">☁ AFP Cuprum — Arquitectura Cloud AWS — Reforma Previsional</text>
  <text x="600" y="62" text-anchor="middle" fill="#8b92a5" font-size="12">Migración y desarrollo de servicios serverless · Python · IaC · Data Pipeline</text>

  <!-- ══════ VPC BOUNDARY ══════ -->
  <rect x="300" y="240" width="580" height="360" rx="14" fill="url(#vpcGrad)" stroke="#3b82f6" stroke-width="1.5" stroke-dasharray="8 4"/>
  <text x="316" y="265" fill="#60a5fa" font-size="11" font-weight="600">Amazon VPC</text>

  <!-- ══════ CI/CD ZONE (top-left) ══════ -->
  <rect x="30" y="80" width="220" height="140" rx="10" fill="#161b26" stroke="#1e2330" stroke-width="1" filter="url(#shadow)"/>
  <text x="140" y="103" text-anchor="middle" fill="#a78bfa" font-size="11" font-weight="600">CI / CD Pipeline</text>
  <!-- GitHub Actions -->
  <rect x="48" y="115" width="84" height="40" rx="6" fill="#1c2333" stroke="#6366f1" stroke-width="1"/>
  <text x="90" y="132" text-anchor="middle" fill="#e2e8f0" font-size="9" font-weight="600">GitHub</text>
  <text x="90" y="146" text-anchor="middle" fill="#a5b4fc" font-size="8">Actions</text>
  <!-- GitLab CI -->
  <rect x="148" y="115" width="84" height="40" rx="6" fill="#1c2333" stroke="#f97316" stroke-width="1"/>
  <text x="190" y="132" text-anchor="middle" fill="#e2e8f0" font-size="9" font-weight="600">GitLab CI</text>
  <text x="190" y="146" text-anchor="middle" fill="#fdba74" font-size="8">Pipelines</text>
  <!-- Docker / K8s -->
  <rect x="48" y="165" width="84" height="36" rx="6" fill="#1c2333" stroke="#22d3ee" stroke-width="1"/>
  <text x="90" y="183" text-anchor="middle" fill="#22d3ee" font-size="9" font-weight="600">Docker</text>
  <text x="90" y="195" text-anchor="middle" fill="#67e8f9" font-size="7">Containers</text>
  <rect x="148" y="165" width="84" height="36" rx="6" fill="#1c2333" stroke="#38bdf8" stroke-width="1"/>
  <text x="190" y="183" text-anchor="middle" fill="#38bdf8" font-size="9" font-weight="600">Kubernetes</text>
  <text x="190" y="195" text-anchor="middle" fill="#7dd3fc" font-size="7">Orchestration</text>

  <!-- ══════ IaC ZONE (top-right) ══════ -->
  <rect x="950" y="80" width="220" height="130" rx="10" fill="#161b26" stroke="#1e2330" stroke-width="1" filter="url(#shadow)"/>
  <text x="1060" y="103" text-anchor="middle" fill="#fbbf24" font-size="11" font-weight="600">Infrastructure as Code</text>
  <rect x="968" y="115" width="84" height="40" rx="6" fill="#1c2333" stroke="#f59e0b" stroke-width="1"/>
  <text x="1010" y="133" text-anchor="middle" fill="#e2e8f0" font-size="9" font-weight="600">CloudFormation</text>
  <text x="1010" y="147" text-anchor="middle" fill="#fcd34d" font-size="8">Stacks</text>
  <rect x="1068" y="115" width="84" height="40" rx="6" fill="#1c2333" stroke="#f59e0b" stroke-width="1"/>
  <text x="1110" y="133" text-anchor="middle" fill="#e2e8f0" font-size="9" font-weight="600">AWS CDK</text>
  <text x="1110" y="147" text-anchor="middle" fill="#fcd34d" font-size="8">Python</text>
  <rect x="1008" y="165" width="84" height="30" rx="6" fill="#1c2333" stroke="#a78bfa" stroke-width="1"/>
  <text x="1050" y="185" text-anchor="middle" fill="#a78bfa" font-size="9" font-weight="600">Python IaC</text>

  <!-- ══════ CLOUDFRONT + USERS (top center) ══════ -->
  <!-- User -->
  <rect x="380" y="85" width="100" height="44" rx="8" fill="#1c2333" stroke="#8b92a5" stroke-width="1" filter="url(#shadow)"/>
  <text x="430" y="105" text-anchor="middle" fill="#e2e8f0" font-size="10" font-weight="600">👤 Usuarios</text>
  <text x="430" y="120" text-anchor="middle" fill="#8b92a5" font-size="8">AFP Cuprum</text>

  <!-- CloudFront -->
  <rect x="530" y="85" width="120" height="44" rx="8" fill="#1c2333" stroke="#a78bfa" stroke-width="1" filter="url(#shadow)"/>
  <text x="590" y="105" text-anchor="middle" fill="#e2e8f0" font-size="10" font-weight="600">CloudFront</text>
  <text x="590" y="120" text-anchor="middle" fill="#c4b5fd" font-size="8">CDN / Edge</text>

  <!-- API Gateway -->
  <rect x="700" y="85" width="120" height="44" rx="8" fill="#1c2333" stroke="#f472b6" stroke-width="1" filter="url(#shadow)"/>
  <text x="760" y="105" text-anchor="middle" fill="#e2e8f0" font-size="10" font-weight="600">API Gateway</text>
  <text x="760" y="120" text-anchor="middle" fill="#f9a8d4" font-size="8">REST API</text>

  <!-- ══════ ARROWS: Users → CloudFront → API GW ══════ -->
  <line x1="480" y1="107" x2="528" y2="107" stroke="#f59e0b" stroke-width="1.5" marker-end="url(#arrowOrange)"/>
  <line x1="650" y1="107" x2="698" y2="107" stroke="#f59e0b" stroke-width="1.5" marker-end="url(#arrowOrange)"/>

  <!-- Arrow from API GW down to Lambda -->
  <line x1="760" y1="131" x2="760" y2="170" stroke="#f59e0b" stroke-width="1.5" marker-end="url(#arrowOrange)"/>

  <!-- ══════ INSIDE VPC ══════ -->

  <!-- Step Functions -->
  <rect x="320" y="280" width="160" height="56" rx="8" fill="#1c2333" stroke="#f472b6" stroke-width="1.2" filter="url(#shadow)"/>
  <text x="400" y="304" text-anchor="middle" fill="#e2e8f0" font-size="11" font-weight="600">Step Functions</text>
  <text x="400" y="322" text-anchor="middle" fill="#f9a8d4" font-size="9">Orquestación de workflows</text>

  <!-- Lambda cluster -->
  <rect x="540" y="270" width="180" height="76" rx="8" fill="#1c2333" stroke="#f59e0b" stroke-width="1.2" filter="url(#shadow)"/>
  <text x="630" y="294" text-anchor="middle" fill="#fbbf24" font-size="11" font-weight="700">AWS Lambda</text>
  <text x="630" y="310" text-anchor="middle" fill="#fcd34d" font-size="9">Python 3.12 · Microservicios</text>
  <rect x="555" y="318" width="52" height="22" rx="4" fill="#1a1f2e" stroke="#f59e0b" stroke-width="0.8"/>
  <text x="581" y="333" text-anchor="middle" fill="#fcd34d" font-size="7">fn-1</text>
  <rect x="614" y="318" width="52" height="22" rx="4" fill="#1a1f2e" stroke="#f59e0b" stroke-width="0.8"/>
  <text x="640" y="333" text-anchor="middle" fill="#fcd34d" font-size="7">fn-2</text>
  <rect x="673" y="318" width="32" height="22" rx="4" fill="#1a1f2e" stroke="#f59e0b" stroke-width="0.8"/>
  <text x="689" y="333" text-anchor="middle" fill="#fcd34d" font-size="7">…</text>

  <!-- Arrow: StepFunctions → Lambda -->
  <line x1="480" y1="308" x2="538" y2="308" stroke="#f59e0b" stroke-width="1.5" marker-end="url(#arrowOrange)"/>

  <!-- Arrow: API GW → Lambda (vertical) -->
  <rect x="751" y="170" width="0" height="0" fill="none"/>
  <path d="M760,131 L760,172 Q760,182 750,182 L720,182 Q710,182 710,192 L710,230 Q710,240 700,240 L660,268" stroke="#f59e0b" stroke-width="1.2" fill="none" marker-end="url(#arrowOrange)"/>

  <!-- ══════ DATA LAYER (inside VPC bottom) ══════ -->

  <!-- RDS -->
  <rect x="320" y="400" width="130" height="56" rx="8" fill="#1c2333" stroke="#4ade80" stroke-width="1.2" filter="url(#shadow)"/>
  <text x="385" y="424" text-anchor="middle" fill="#e2e8f0" font-size="11" font-weight="600">Amazon RDS</text>
  <text x="385" y="441" text-anchor="middle" fill="#86efac" font-size="9">PostgreSQL</text>

  <!-- DynamoDB -->
  <rect x="480" y="400" width="130" height="56" rx="8" fill="#1c2333" stroke="#4ade80" stroke-width="1.2" filter="url(#shadow)"/>
  <text x="545" y="424" text-anchor="middle" fill="#e2e8f0" font-size="11" font-weight="600">DynamoDB</text>
  <text x="545" y="441" text-anchor="middle" fill="#86efac" font-size="9">NoSQL · Key-Value</text>

  <!-- S3 Buckets -->
  <rect x="640" y="400" width="130" height="56" rx="8" fill="#1c2333" stroke="#4ade80" stroke-width="1.2" filter="url(#shadow)"/>
  <text x="705" y="424" text-anchor="middle" fill="#e2e8f0" font-size="11" font-weight="600">Amazon S3</text>
  <text x="705" y="441" text-anchor="middle" fill="#86efac" font-size="9">Data Lake / Assets</text>

  <!-- Arrows Lambda → DBs -->
  <line x1="590" y1="348" x2="390" y2="398" stroke="#4ade80" stroke-width="1.2" stroke-dasharray="5 3" marker-end="url(#arrowGreen)"/>
  <line x1="630" y1="348" x2="545" y2="398" stroke="#4ade80" stroke-width="1.2" stroke-dasharray="5 3" marker-end="url(#arrowGreen)"/>
  <line x1="665" y1="348" x2="700" y2="398" stroke="#4ade80" stroke-width="1.2" stroke-dasharray="5 3" marker-end="url(#arrowGreen)"/>

  <!-- ══════ AWS GLUE + ATHENA + PySpark (bottom center) ══════ -->
  <rect x="310" y="510" width="160" height="56" rx="8" fill="#1c2333" stroke="#22d3ee" stroke-width="1.2" filter="url(#shadow)"/>
  <text x="390" y="534" text-anchor="middle" fill="#e2e8f0" font-size="11" font-weight="600">AWS Glue</text>
  <text x="390" y="551" text-anchor="middle" fill="#67e8f9" font-size="9">ETL · PySpark Jobs</text>

  <rect x="510" y="510" width="160" height="56" rx="8" fill="#1c2333" stroke="#22d3ee" stroke-width="1.2" filter="url(#shadow)"/>
  <text x="590" y="534" text-anchor="middle" fill="#e2e8f0" font-size="11" font-weight="600">Amazon Athena</text>
  <text x="590" y="551" text-anchor="middle" fill="#67e8f9" font-size="9">Queries SQL · S3</text>

  <rect x="710" y="510" width="130" height="56" rx="8" fill="#1c2333" stroke="#a78bfa" stroke-width="1.2" filter="url(#shadow)"/>
  <text x="775" y="534" text-anchor="middle" fill="#e2e8f0" font-size="11" font-weight="600">PySpark</text>
  <text x="775" y="551" text-anchor="middle" fill="#c4b5fd" font-size="9">Data Processing</text>

  <!-- Arrows S3 → Glue, S3 → Athena -->
  <line x1="680" y1="458" x2="430" y2="508" stroke="#22d3ee" stroke-width="1.2" stroke-dasharray="5 3" marker-end="url(#arrowCyan)"/>
  <line x1="705" y1="458" x2="590" y2="508" stroke="#22d3ee" stroke-width="1.2" stroke-dasharray="5 3" marker-end="url(#arrowCyan)"/>
  <line x1="730" y1="458" x2="745" y2="508" stroke="#22d3ee" stroke-width="1.2" stroke-dasharray="5 3" marker-end="url(#arrowCyan)"/>

  <!-- ══════ FLOW LABELS ══════ -->
  <!-- CI/CD → VPC arrow -->
  <path d="M250,170 Q280,220 340,260" stroke="#6366f1" stroke-width="1.3" fill="none" stroke-dasharray="6 3" marker-end="url(#arrowOrange)"/>
  <text x="270" y="228" fill="#a5b4fc" font-size="8" transform="rotate(-30,270,228)">Deploy</text>

  <!-- IaC → VPC arrow -->
  <path d="M950,170 Q920,220 850,260" stroke="#f59e0b" stroke-width="1.3" fill="none" stroke-dasharray="6 3" marker-end="url(#arrowOrange)"/>
  <text x="920" y="225" fill="#fcd34d" font-size="8" transform="rotate(30,920,225)">Provisioning</text>

  <!-- ══════ LEGEND ══════ -->
  <rect x="30" y="680" width="1140" height="110" rx="10" fill="#0f1219" stroke="#1e2330" stroke-width="1"/>
  <text x="60" y="705" fill="#8b92a5" font-size="11" font-weight="600">TECNOLOGÍAS UTILIZADAS</text>

  <!-- Row 1 -->
  <rect x="60" y="718" width="10" height="10" rx="2" fill="#f59e0b"/>
  <text x="78" y="728" fill="#e2e8f0" font-size="10">Lambda · Step Functions · API Gateway</text>

  <rect x="340" y="718" width="10" height="10" rx="2" fill="#4ade80"/>
  <text x="358" y="728" fill="#e2e8f0" font-size="10">S3 · RDS · DynamoDB</text>

  <rect x="560" y="718" width="10" height="10" rx="2" fill="#22d3ee"/>
  <text x="578" y="728" fill="#e2e8f0" font-size="10">Glue · Athena · PySpark</text>

  <rect x="790" y="718" width="10" height="10" rx="2" fill="#a78bfa"/>
  <text x="808" y="728" fill="#e2e8f0" font-size="10">CloudFront · CloudFormation · CDK</text>

  <!-- Row 2 -->
  <rect x="60" y="746" width="10" height="10" rx="2" fill="#6366f1"/>
  <text x="78" y="756" fill="#e2e8f0" font-size="10">GitHub Actions · GitLab CI</text>

  <rect x="340" y="746" width="10" height="10" rx="2" fill="#38bdf8"/>
  <text x="358" y="756" fill="#e2e8f0" font-size="10">Docker · Kubernetes</text>

  <rect x="560" y="746" width="10" height="10" rx="2" fill="#f472b6"/>
  <text x="578" y="756" fill="#e2e8f0" font-size="10">VPC · Networking · Security</text>

  <rect x="790" y="746" width="10" height="10" rx="2" fill="#fbbf24"/>
  <text x="808" y="756" fill="#e2e8f0" font-size="10">Python 3.12 · Reforma Previsional</text>

  <!-- Bottom line -->
  <text x="600" y="776" text-anchor="middle" fill="#4b5563" font-size="9">© 2026 Ricardo Poblete · AFP Cuprum · BC Tecnología · Arquitectura de Referencia (Mock)</text>
</svg>